PathFileType	4	(X/Y/Z)	8_coords_data.trc
DataRate	CameraRate	NumFrames	NumMarkers	Units	OrigDataRate	OrigDataStartFrame	OrigNumFrames
30.0	30.0	8	21	m	30.0	42	62
Frame#	Time	THUMB_TIP	THUMB_IP	THUMB_MCP	THUMB_CMC	INDEX_TIP	INDEX_DIP	INDEX_PIP	INDEX_MCP	MIDDLE_TIP	MIDDLE_DIP	MIDDLE_PIP	MIDDLE_MCP	RING_TIP	RING_DIP	RING_PIP	RING_MCP	PINKY_TIP	PINKY_DIP	PINKY_PIP	PINKY_MCP	WRIST
X1	Y1	Z1	X2	Y2	Z2	X3	Y3	Z3	X4	Y4	Z4	X5	Y5	Z5	X6	Y6	Z6	X7	Y7	Z7	X8	Y8	Z8	X9	Y9	Z9	X10	Y10	Z10	X11	Y11	Z11	X12	Y12	Z12	X13	Y13	Z13	X14	Y14	Z14	X15	Y15	Z15	X16	Y16	Z16	X17	Y17	Z17	X18	Y18	Z18	X19	Y19	Z19	X20	Y20	Z20	X21	Y21	Z21
40	1.3666666666666607	0.4812097760688967	-0.02383471098146761	-0.1732887312350939	0.4836070303341591	-0.02574540288179261	-0.15051588713406613	0.47858684204661506	-0.028738500555909985	-0.11994369264510604	0.477796483098085	-0.028897540142767464	-0.0753427953543307	0.578461407773416	0.020889529168255483	-0.15337721133148302	0.5613676672629668	0.02443075191262334	-0.14855395757118758	0.5378435054333219	0.02613530922231022	-0.13985234119314213	0.5063233214287763	0.009634870871085721	-0.11644615336733333	0.5930650962178898	0.03593551851424004	-0.13369492777476738	0.5758692016577006	0.03800954178217997	-0.1284034593813158	0.5483270248644252	0.03932677563063136	-0.11896402388567007	0.5136834104845492	0.01974286931638458	-0.09865544153304742	0.5936910613371492	0.04423253349528289	-0.1077052329812379	0.5765299079798638	0.04498417890849371	-0.1022344154353375	0.5527759761859148	0.04395901365097732	-0.09482632934490856	0.521338439199103	0.022801337877030536	-0.08072828486890457	0.5880660176142708	0.04683188272406791	-0.07572013194369231	0.5716279573099455	0.04425397350275195	-0.07170210288978826	0.5517937977318831	0.038751007447370034	-0.06756259839948209	0.5227861144224444	0.01849162588191633	-0.06056293993605169	0.462283081001861	-0.023011742144276925	-0.051989820119430985
41	1.3999999999999937	0.48195359028468143	-0.02213339950154647	-0.1730642830916045	0.4840827723496184	-0.024610459480895464	-0.15031937690157904	0.47883033304980915	-0.028303006267092923	-0.11986290009230967	0.4778829121170559	-0.028958743666354758	-0.075269600124272	0.577651536186292	0.027802797030658355	-0.15646535362627195	0.5607162926673932	0.028274468349780757	-0.15006417770912078	0.5378025586830629	0.02681565751833448	-0.1398249150963441	0.5070297689374718	0.009455402713220207	-0.11604902271824073	0.5918780328581442	0.04506041217422352	-0.13520529295101893	0.5748800396080331	0.04369199751443531	-0.12910646791761662	0.5478397527525802	0.04076162454658494	-0.11863530031108313	0.5142421119312651	0.019497996512117144	-0.09825873104504379	0.5920354476591226	0.052408175983692074	-0.10804080726071658	0.5751980493760099	0.050020336228899454	-0.10205747705411215	0.55202878414891	0.04547780646065003	-0.09413721499147423	0.5217319456833256	0.022521256137494006	-0.08035972573360531	0.5861986056697849	0.05268274436251219	-0.07474986268341552	0.5703596322288357	0.047493385662697674	-0.07085146857538072	0.5513367968640858	0.0395697687752109	-0.06683151221915512	0.5230165553298878	0.018200331827156968	-0.0603357801612702	0.4622830810018609	-0.023011742144276925	-0.051989820119430985
42	1.4333333333333271	0.4827427526037321	-0.02087651598039264	-0.17281238067433333	0.4846103270297316	-0.023753149515579275	-0.15009152802159176	0.47913495450701893	-0.027941445219980432	-0.11973862906893784	0.4780449536835444	-0.02897597079164982	-0.07515576627339288	0.5758929747373251	0.03414033641164038	-0.15873727909196472	0.5596107019394859	0.03185127396273091	-0.15114466520465702	0.5375649688105639	0.02767137058183633	-0.13980782739445896	0.5076135601084626	0.009412283664576027	-0.11565922586750427	0.5896412780762054	0.05318404537722499	-0.13597377880214095	0.5734016691164964	0.04869700809777566	-0.1293298644974132	0.5472544396076576	0.04219721244622254	-0.11821750221479435	0.5146345971777558	0.019427673900370146	-0.09787931362147745	0.5895351652085874	0.05957883515993556	-0.1077769564115732	0.5733867208044308	0.05454147514409424	-0.10154375920655304	0.5510458689801485	0.04711657262859348	-0.09342359040284112	0.5219630777168401	0.022465945057257186	-0.07996035725942002	0.5839077099970023	0.05767373935694631	-0.07344399685294856	0.5688550566319721	0.05040831675773216	-0.06975194307123381	0.5506633387943997	0.04062841750666768	-0.06598007460094285	0.5231053435503712	0.01812131095267655	-0.06007494939503927	0.4622830810018609	-0.023011742144276925	-0.051989820119430985
43	1.4666666666666603	0.4833939094465166	-0.020010469129879027	-0.1725983291783108	0.48509118040669885	-0.02311249160202422	-0.14989377615760527	0.47949228940396005	-0.027654110919656638	-0.11961430929451208	0.4782108722867041	-0.028968581523358905	-0.07504391399445212	0.5734862057410486	0.039853763341662685	-0.16032565130369558	0.5581486438986446	0.035165270325881126	-0.15191273088499432	0.5370565151621497	0.02874813285079869	-0.1398316595339501	0.508050300711469	0.009497447492133215	-0.11530235602849392	0.5867785837267888	0.060152058718204504	-0.13615068840587913	0.5716007867664873	0.053102170158561224	-0.12922728239955028	0.5464957357669974	0.04373798137798646	-0.11776177182239883	0.5148828749309904	0.019513746581610092	-0.09751426829003018	0.5866958210205663	0.06551449493724659	-0.10712839744074057	0.5713555697654147	0.058423204670921436	-0.10085222872188483	0.549865531564227	0.04881093299818928	-0.09273050043283888	0.5220694834520024	0.02256161511631305	-0.07957474678361354	0.5815287649689693	0.06178279925319552	-0.071976619444553	0.567247634399101	0.052988092092591255	-0.06855573715988117	0.5497639833063038	0.041886886459784334	-0.06510650580152488	0.5230910249600234	0.01819528400630277	-0.0598013463087495	0.4622830810018608	-0.023011742144276925	-0.051989820119430985
44	1.4999999999999936	0.4838341742508345	-0.01944269794633524	-0.172439362125409	0.4854665643208832	-0.022670305170291893	-0.14974756064850842	0.47978717262071546	-0.027418828223380376	-0.11951486247698634	0.47833748115747476	-0.028964300454533687	-0.07495703588901031	0.5707937528173402	0.04466075183660234	-0.16145813316349672	0.5564606951547149	0.038096520901619635	-0.15254329551651336	0.5363197653212871	0.02990004186050854	-0.13992701596295365	0.5083630012055059	0.00961941030927338	-0.11501213249829306	0.5838504775941218	0.06571961705703278	-0.1359698742620509	0.5697353087332023	0.05677988756488006	-0.1289810800430983	0.5456464971125365	0.04521900375522503	-0.11734129180431424	0.5150255891247574	0.019657853857538488	-0.09721331299590019	0.5839718861056209	0.07014371492302673	-0.10638887960818035	0.5693677108393079	0.06159391558539884	-0.1001744612060198	0.5486541959130868	0.050362847606441496	-0.09211261337482997	0.5220918507831145	0.022727672981586178	-0.07924949638671278	0.5794717101216096	0.06487407613454876	-0.0704920681819576	0.5657834948634258	0.05509074682959547	-0.06734258715225266	0.5488406584233992	0.04308945325223401	-0.06422469285698146	0.5230257063481059	0.018336340709845578	-0.059560454461040746	0.4622830810018609	-0.023011742144276925	-0.051989820119430985
45	1.5333333333333266	0.4841282077838468	-0.019013044213142094	-0.1723178483050714	0.485725688863927	-0.02231242860281024	-0.14963388663943633	0.480016726619935	-0.02719717821520451	-0.1194284736920706	0.47846420717831517	-0.02891593507481427	-0.07488045961466266	0.5680810496866395	0.04864983166767789	-0.16227264135273933	0.5546882595159323	0.04068914330913875	-0.15303897402596042	0.5354332729220951	0.031106945324306245	-0.14002218463492305	0.5085721976394261	0.009788531825852598	-0.11477057132868573	0.5811082339322925	0.07012499774206638	-0.1356137485393564	0.5678850627061183	0.05988059237880616	-0.12867113365183142	0.5446903193976332	0.04666728739598103	-0.1169740398125763	0.5150744933839767	0.019857816234611025	-0.09696646558238779	0.5814016331606309	0.07387681187607853	-0.105695603479914	0.567415260385545	0.0642949304457564	-0.09956625401593475	0.5473973123390464	0.051814917649869896	-0.09158433597437389	0.5220394894290805	0.02295817229705166	-0.07897521630211218	0.5776403131984622	0.06738122712879124	-0.06901475517213537	0.5643962742206728	0.056927220391571054	-0.06613219126253186	0.5479001486375644	0.04424102424348486	-0.06334825752794021	0.5229103101886622	0.01853910358828137	-0.05937299653884806	0.462283081001861	-0.023011742144276925	-0.051989820119430985
46	1.5666666666666598	0.4842737667070216	-0.01864703645416954	-0.17222891854543856	0.48585620768573523	-0.021998600070922913	-0.14955155313691407	0.4801665726665735	-0.02700573229693759	-0.11936253725000687	0.47856546933717814	-0.028864241371252986	-0.07482185458629723	0.565549831318997	0.0518126521479233	-0.16293881482694664	0.5529717184728811	0.04286033504849118	-0.15347059980078728	0.5345251345592773	0.032209092851711474	-0.1401182811038751	0.508722146561187	0.009954916804400638	-0.11457237041692363	0.5787303127549485	0.07349714845907174	-0.13527982731747382	0.5662119099699622	0.06236612973371736	-0.12839578679982339	0.5437732610841116	0.04792694417315235	-0.11667288159142519	0.5150955506250686	0.020050163859773984	-0.096757511567573	0.5791522928692514	0.07678605473646904	-0.10514854269869175	0.5656780560536473	0.06645995615638534	-0.09908087178215302	0.5462707492046467	0.05301889977516627	-0.09115153238812847	0.5219734886321785	0.023180323100660427	-0.07874091980400422	0.5761046681099375	0.06934077715759956	-0.06764027591778121	0.5632037255411166	0.05840349250006405	-0.06500560607963865	0.5470820024306009	0.04518043227033475	-0.06254537415788514	0.5228149476044863	0.018706669366071682	-0.05920870234974698	0.4622830810018608	-0.023011742144276925	-0.051989820119430985
47	1.599999999999993	0.4844613095176219	-0.018317546607236057	-0.1721425435895648	0.48601839992161777	-0.021729675349120736	-0.1494724565380648	0.4803048791532143	-0.026845166523690067	-0.11930612712144656	0.47865148115840195	-0.028817444054115238	-0.07477224792354006	0.5634907441002274	0.0541303432278335	-0.16341412384282242	0.5515581697976002	0.04449078449719812	-0.15378642536442622	0.5337718176992343	0.033071670416563004	-0.1401754244590409	0.5088733120466186	0.010059191030366454	-0.11440477637315558	0.5769162557791501	0.0759202773912413	-0.13493710340336768	0.5649130476191662	0.06419695745836496	-0.1281189831624564	0.5430622747730163	0.04888052772929574	-0.11639890396560613	0.5151311486141941	0.02018570019993604	-0.09658459132145243	0.5774244144416266	0.07886214964111993	-0.10470986866068613	0.5643415809986898	0.06801617462429499	-0.0986928681588762	0.5454137881109852	0.053881595863604304	-0.09081046251986016	0.5219459986745452	0.023325402086712965	-0.07855066175329001	0.5749606245424075	0.07073360106071913	-0.06638331164101341	0.5623036732515124	0.059462125941984856	-0.06398426335728563	0.5464654334552141	0.045849593150616985	-0.06182529829066369	0.5227655132943506	0.018800418817434328	-0.05907950090888345	0.4622830810018609	-0.023011742144276925	-0.051989820119430985
